<svg xmlns="http://www.w3.org/2000/svg" version="1.1" x="0" y="0" viewBox="0 0 50.4 27.3" enable-background="new 0 0 50.4 27.3" xml:space="preserve"><path d="M47.4 22.5c-3.2-1.9-4.4-2-4.7-4.1 -0.1-0.6-0.1-1.4-0.1-2.1 0 0 0.7 0.2 1.9 0.2 1.2 0 1.8-0.6 1.8-0.6s-0.2-0.3-0.6-1.4c-0.8-2.2-0.4-3.3-0.4-5.5 0-2.2-0.8-3.3-1.6-4.1 -1-1-2.4-1.6-3.7-0.9C38.9 3.4 37.5 4 36.5 5c-0.9 0.8-1.6 1.9-1.6 4.1 0 2.2 0.4 3.2-0.4 5.5 -0.4 1-0.6 1.4-0.6 1.4s0.7 0.6 1.8 0.6c1.2 0 1.6-0.3 1.7-0.2 0 0.6 0 1.4-0.1 2.1 -0.2 1.2-0.7 1.7-1.7 2.4 0.4 0.5 0.8 1 1.2 1.5 1.1 1.7 1.3 3.8 0.9 5 0.7 0 1.4 0 2.2 0l0 0c4.3 0 7.2 0 9.2 0 0.7 0 0.9-0.2 0.9-1C50.1 25.6 50.1 24.1 47.4 22.5zM14.4 20.8c-1-0.6-1.5-1.2-1.7-2.4 -0.1-0.6-0.1-1.4-0.1-2.1 0 0 0.7 0.2 1.9 0.2s1.8-0.6 1.8-0.6 -0.2-0.3-0.6-1.4c-0.8-2.2-0.4-3.3-0.4-5.5 0-2.2-0.8-3.3-1.6-4.1 -1-1-2.4-1.6-3.7-0.9C8.9 3.4 7.6 4 6.6 5 5.7 5.8 5 6.9 5 9.1c0 2.2 0.4 3.2-0.4 5.5 -0.4 1-0.6 1.4-0.6 1.4s0.7 0.6 1.8 0.6c1.2 0 1.6-0.3 1.7-0.2 0 0.6 0 1.4-0.1 2.1 -0.3 2-1.5 2.2-4.6 4.1C0 24.1 0 25.6 0 26.3c0 0.8 0.2 1 0.9 1 2 0 4.8 0 9.1 0h0c0.8 0 1.6 0 2.3 0 -0.3-1.2-0.2-3.3 0.9-5C13.6 21.7 14 21.2 14.4 20.8zM31.4 19.8c-1.7-0.6-2.2-1-2.7-1.6 -0.4-0.6-0.3-3.1-0.3-3.1s0.9-1.3 1.2-2.1c0.3-0.8 0.4-2.4 0.4-2.4s0.8-0.5 1-1.2c0.2-0.6 0.4-1.7 0.2-2.2C31.1 6.8 30.5 7 30.5 7s0-0.9 0-1.5c0-0.9-0.2-5.4-5.5-5.4 -5.3 0-5.5 4.5-5.5 5.4 0 0.7 0 1.5 0 1.5S19 6.8 18.8 7.3c-0.1 0.5 0 1.6 0.2 2.2 0.2 0.6 1 1.2 1 1.2s0.1 1.6 0.4 2.4c0.3 0.8 1.2 2.1 1.2 2.1s0.2 2.5-0.3 3.1c-0.4 0.6-1 0.9-2.7 1.6 -1.7 0.6-3 1.7-4.1 3.3 -1.1 1.7-0.9 3.7-0.7 4 0.2 0.2 1 0.2 1.6 0.2 2 0 4.9 0 9.5 0 4.6 0 7.6 0 9.5 0 0.6 0 1.4 0 1.6-0.2 0.2-0.2 0.4-2.3-0.7-4C34.4 21.4 33.1 20.4 31.4 19.8z"/></svg>