<svg xmlns="http://www.w3.org/2000/svg" version="1.1" x="0" y="0" viewBox="0 0 62.6 60.3" enable-background="new 0 0 62.6 60.3" xml:space="preserve"><path d="M43.5 30.5c1 0 1.9 0.2 2.6 0.5 0.8 0.3 1.5 0.8 2.3 1.4l3.2-4.9c-1.2-0.9-2.4-1.6-3.7-2 -1.3-0.5-2.8-0.7-4.5-0.7 -1.9 0-3.6 0.3-5 1 -1.4 0.7-2.6 1.7-3.6 2.9 -1 1.2-1.7 2.6-2.1 4.3 -0.5 1.7-0.7 3.4-0.7 5.4v0.1c0 2.3 0.3 4.2 0.8 5.7 0.6 1.5 1.3 2.7 2.2 3.6 0.9 0.9 1.9 1.6 3.1 2.1 1.2 0.5 2.7 0.7 4.4 0.7 1.3 0 2.6-0.2 3.8-0.6 1.2-0.4 2.2-1 3.1-1.8 0.9-0.8 1.6-1.7 2.1-2.8 0.5-1.1 0.8-2.3 0.8-3.7v-0.1c0-1.2-0.2-2.3-0.7-3.3 -0.4-1-1-1.8-1.8-2.4 -0.7-0.6-1.6-1.1-2.6-1.5 -1-0.3-2-0.5-3.1-0.5 -1.2 0-2.3 0.2-3.1 0.6 -0.8 0.4-1.6 0.8-2.2 1.3 0.2-1.5 0.6-2.8 1.4-3.8C41 31 42.1 30.5 43.5 30.5zM39.7 39.7c0.6-0.6 1.4-0.9 2.5-0.9 1.1 0 1.9 0.3 2.6 0.9 0.6 0.6 0.9 1.4 0.9 2.3h0V42c0 0.9-0.3 1.7-0.9 2.3 -0.6 0.6-1.4 0.9-2.5 0.9 -1.1 0-1.9-0.3-2.6-0.9 -0.6-0.6-0.9-1.4-0.9-2.3v-0.1C38.8 41 39.1 40.3 39.7 39.7zM19.8 37.8l-9.2 7.1v5.2h19.5v-5.6H19.9l4.2-3c0.9-0.7 1.7-1.3 2.4-1.9 0.7-0.6 1.3-1.3 1.8-1.9 0.5-0.7 0.9-1.4 1.1-2.2 0.2-0.8 0.4-1.7 0.4-2.7v-0.1c0-1.2-0.2-2.2-0.7-3.2 -0.4-1-1.1-1.8-1.9-2.5 -0.8-0.7-1.8-1.2-2.9-1.6 -1.1-0.4-2.3-0.6-3.7-0.6 -1.2 0-2.3 0.1-3.2 0.4 -1 0.2-1.8 0.6-2.6 1 -0.8 0.4-1.5 1-2.2 1.7 -0.7 0.7-1.4 1.4-2 2.3l4.6 3.9c1-1.1 1.8-1.9 2.6-2.4 0.7-0.5 1.5-0.8 2.3-0.8 0.8 0 1.5 0.2 2 0.7 0.5 0.4 0.8 1.1 0.8 1.8 0 0.8-0.2 1.5-0.7 2.1C21.7 36.1 20.9 36.9 19.8 37.8zM43.8 10.2h0.5c1.5 0 2.7-1.2 2.7-2.7V2.7C47 1.2 45.8 0 44.3 0h-0.5c-1.5 0-2.7 1.2-2.7 2.7v4.9C41.2 9 42.4 10.2 43.8 10.2zM18.6 10.2H19c1.5 0 2.7-1.2 2.7-2.7V2.7C21.7 1.2 20.5 0 19 0h-0.5c-1.5 0-2.7 1.2-2.7 2.7v4.9C15.9 9 17.1 10.2 18.6 10.2zM58.7 19.9h3.9V7.3c0-1.3-1.1-2.4-2.4-2.4H48v2.7c0 2-1.6 3.6-3.6 3.6h-0.5c-2 0-3.6-1.6-3.6-3.6V4.9H22.7v2.7c0 2-1.6 3.6-3.6 3.6h-0.5c-2 0-3.6-1.6-3.6-3.6V4.9H2.8c-1.3 0-2.4 1.1-2.4 2.4v12.6h3.9H58.7zM58.7 21.9v33.5c0 0.8-0.2 1-1 1H5.2c-0.8 0-1-0.2-1-1V21.9H0.3v36c0 1.3 1.1 2.4 2.4 2.4h57.4c1.3 0 2.4-1.1 2.4-2.4v-36H58.7z"/></svg>