<svg xmlns="http://www.w3.org/2000/svg" viewBox="0 0 792 252"><path d="M238.3 223h-30.9c0-8.5-3-15.8-9.1-21.8 -6.1-6.2-13.4-9.2-21.8-9.2 -8.4 0-15.8 3-21.8 9.2 -5.9 6.1-9 13.4-9 21.8h-30.1v-10 -22.3 -0.7c9.2-1.6 17.4-6 24.3-13 2.6-2.6 4.8-5.3 6.7-8.2v0.1c9.2-5.1 19.2-7.8 30-7.8 17 0 31.7 6.1 43.7 18.2C232.2 191.4 238.3 206 238.3 223M148.3 147.1c-0.1 2.8-0.5 5.5-1.1 8.2 -0.1 0.3-0.2 0.6-0.2 1 -0.1 0.3-0.2 0.6-0.3 0.9 -0.1 0.3-0.2 0.5-0.2 0.8 -0.1 0.4-0.2 0.7-0.4 1.1 -0.1 0.4-0.2 0.7-0.4 1.1 -0.3 0.8-0.6 1.5-0.9 2.2 0 0 0 0.1 0 0.1 0 0 0 0 0 0 -0.1 0.2-0.1 0.3-0.2 0.5 -0.5 1.1-1.1 2.2-1.7 3.3 -1.7 3-3.8 5.8-6.3 8.3 -0.1 0.1-0.2 0.3-0.4 0.4 -0.1 0.1-0.2 0.2-0.3 0.3 -0.1 0.1-0.2 0.2-0.3 0.3 -4 3.8-8.5 6.7-13.3 8.6 -0.4 0.2-0.8 0.3-1.2 0.4 -0.3 0.1-0.6 0.2-0.9 0.3 -4.1 1.4-8.5 2.1-13.1 2.1 -0.1 0-0.2 0-0.3 0 -0.1 0-0.3 0-0.4 0 -0.1 0-0.2 0-0.4 0 -0.4 0-0.8 0-1.1 0 -0.6 0-1.2-0.1-1.8-0.1 -0.2 0-0.4 0-0.7-0.1 -0.5 0-1-0.1-1.5-0.2 -0.3 0-0.6-0.1-1-0.1 -0.4-0.1-0.8-0.1-1.1-0.2 -1.6-0.3-3.1-0.7-4.7-1.2 -0.1 0-0.2-0.1-0.3-0.1 -0.5-0.2-1-0.3-1.5-0.5 -0.7-0.3-1.5-0.5-2.2-0.9 -5.5-2.3-10.3-5.9-14.5-10.7 -1-1.2-2-2.4-2.8-3.6 -0.1-0.1-0.2-0.3-0.3-0.4 -0.6-0.8-1.1-1.6-1.6-2.5 -0.1-0.2-0.3-0.5-0.4-0.7 -0.4-0.8-0.9-1.6-1.2-2.4 -0.1-0.2-0.2-0.3-0.2-0.5 -0.5-1-0.9-2-1.3-3.1 0 0 0-0.1 0-0.1 -1.5-4.3-2.3-8.9-2.3-13.7 0-0.1 0-0.2 0-0.3 0-0.1 0-0.2 0-0.3 0-0.2 0-0.3 0-0.5 0-0.3 0-0.6 0-0.9 0-0.8 0.1-1.7 0.2-2.5l2.2-34.2c3.6 2.4 6.9 5.4 9.8 9 2.5-2.5 5.2-4.7 8.1-6.4l26.5-18.7c0.4 4.1 0.1 8.2-0.7 12.4l26.5-2.8c-1.8 4-4.2 7.7-7.2 11.1 2.5 1.8 4.9 4 7 6.4 3.1-3.4 6.5-6.2 10.3-8.4v32.9C148.4 144.2 148.4 145.6 148.3 147.1M127.6 145.4c0-0.7 0-1.3-0.1-1.9 0 0 0 0 0 0 -0.1-0.7-0.2-1.3-0.3-1.9 0 0 0-0.1 0-0.1 -0.1-0.5-0.2-1.1-0.4-1.6 0-0.2-0.1-0.3-0.1-0.5 -0.1-0.4-0.2-0.7-0.4-1.1 -0.1-0.3-0.3-0.7-0.4-1 -0.1-0.2-0.2-0.3-0.2-0.5 -0.8-1.7-1.9-3.3-3.2-4.9 -0.9-1.1-1.9-2-3-2.8 0 0-0.1-0.1-0.2-0.1 -0.5-0.4-0.9-0.7-1.4-1 -0.1-0.1-0.2-0.1-0.3-0.2 -0.5-0.3-0.9-0.5-1.4-0.8 -0.1-0.1-0.2-0.1-0.3-0.2 -0.5-0.2-1-0.4-1.5-0.6 -0.1 0-0.2-0.1-0.4-0.1 -0.5-0.2-1-0.3-1.5-0.5 -0.1 0-0.3-0.1-0.4-0.1 -0.5-0.1-1-0.2-1.5-0.3 -0.3 0-0.5-0.1-0.8-0.1 -0.4 0-0.7-0.1-1.1-0.1 -0.5 0-1-0.1-1.5-0.1 -0.1 0-0.2 0-0.3 0 -1.3 0-2.6 0.1-3.8 0.3 -0.2 0-0.4 0.1-0.6 0.1 -0.3 0.1-0.6 0.1-0.9 0.2 -0.5 0.1-0.9 0.3-1.4 0.4 -0.3 0.1-0.5 0.2-0.8 0.3 -0.3 0.1-0.7 0.3-1 0.4 0 0 0 0 0 0 -0.7 0.3-1.3 0.7-2 1.1 -0.1 0.1-0.2 0.1-0.4 0.2 -0.3 0.2-0.5 0.3-0.8 0.5 -1 0.7-2 1.5-2.9 2.4 -0.9 0.9-1.7 1.9-2.4 2.9 -0.1 0.1-0.2 0.3-0.3 0.4 -0.2 0.3-0.3 0.5-0.5 0.8 -0.2 0.3-0.4 0.7-0.6 1.1 0 0 0 0.1-0.1 0.1 -0.8 1.7-1.5 3.6-1.8 5.6 0 0.3-0.1 0.5-0.1 0.8 0 0.4-0.1 0.7-0.1 1.1 -0.1 1.3-0.1 2.6 0.1 4 0.1 1 0.3 2 0.5 3 0.6 2.3 1.7 4.6 3.2 6.7 3.3 4.6 7.7 7.5 13.3 8.5 0.3 0 0.6 0.1 0.8 0.1 0.4 0 0.8 0.1 1.2 0.1 0.1 0 0.3 0 0.4 0 0.5 0 1 0 1.5 0 0.3 0 0.6 0 1 0 0.3 0 0.6 0 0.9-0.1 0.4 0 0.8-0.1 1.1-0.2 0.3 0 0.5-0.1 0.8-0.1 0.3-0.1 0.7-0.1 1-0.2 0.4-0.1 0.7-0.2 1.1-0.3 0.2-0.1 0.4-0.1 0.6-0.2 2.4-0.8 4.6-2.2 6.7-3.9 0.4-0.4 0.9-0.8 1.3-1.2 0.4-0.4 0.8-0.9 1.2-1.3 1.6-2 2.7-4.1 3.5-6.3 0.1-0.4 0.2-0.7 0.3-1.1 0.1-0.2 0.1-0.4 0.2-0.7 0.1-0.4 0.2-0.8 0.3-1.3 0-0.3 0.1-0.6 0.1-0.8 0.1-0.4 0.1-0.7 0.1-1.1 0-0.5 0.1-0.9 0.1-1.4C127.6 145.7 127.6 145.6 127.6 145.4"/><path d="M323.9 150.3c21.6 0 33.8 14.3 33.8 33.6 0 2.3-0.6 7.3-0.6 7.3h-46.2c1.8 8.5 9.2 12.4 17.1 12.4 10.5 0 20.2-7 20.2-7l9.1 16.3c0 0-11.8 10.1-31.3 10.1 -26.2 0-40.2-18-40.2-36.5C285.8 166.2 300.3 150.3 323.9 150.3zM333 177.8c0-5.3-3.8-10-9.7-10 -7.1 0-10.5 4.9-11.8 10H333zM414.8 150.3c14.8 0 19.2 5.5 19.2 5.5h0.3c0 0-0.1-1.4-0.1-3.1v-27.8h24.6v96.5h-23v-4.6c0-2.2 0.1-3.9 0.1-3.9h-0.3c0 0-6.1 10.1-21.2 10.1 -19.9 0-33-14.9-33-36.5C381.4 164.6 395.4 150.3 414.8 150.3zM420.5 203.7c7.4 0 14.4-5.1 14.4-17.1 0-8.4-4.7-16.6-14.4-16.6 -7.7 0-14.4 5.9-14.4 16.6C406.2 197 412 203.7 420.5 203.7zM490.2 124.9h24.6v67.8c0 6.6 1.3 8.9 6.8 8.9 1.6 0 3-0.1 3-0.1v20.3c0 0-3.4 0.4-7.4 0.4 -13.1 0-27-3-27-26.3V124.9zM551.6 151.9h24.6v69.5h-24.6V151.9zM551.9 124.9h24v18.2h-24V124.9zM644.5 150.3c23.2 0 41.6 14.7 41.6 36.6 0 21.7-18.5 36.2-41.5 36.2 -23 0-41.5-14.4-41.5-36.2C603.2 165 621.7 150.3 644.5 150.3zM644.7 203.6c9 0 16.6-6.3 16.6-16.7 0-10.5-7.7-17.1-16.6-17.1 -9 0-16.6 6.6-16.6 17.1C628 197.2 635.7 203.6 644.7 203.6z"/><path d="M699 117.2c7.7 0 13.8 6.2 13.8 14.1 0 7.8-6.1 14.1-13.8 14.1 -7.6 0-13.7-6.2-13.7-14.1C685.3 123.5 691.4 117.2 699 117.2M699 142.8c6.2 0 11-5 11-11.5 0-6.4-4.8-11.5-11-11.5 -6.1 0-10.9 5-10.9 11.5C688.2 137.8 692.9 142.8 699 142.8M694.3 124h5.6c2.7 0 4.6 1.7 4.6 4.4 0 2.2-1.5 3.5-2.7 3.9v0.1c0 0 0.2 0.2 0.5 0.8l2.8 5.4h-3l-2.7-5.6h-2.4v5.6h-2.7V124zM699.4 130.9c1.4 0 2.4-0.9 2.4-2.5 0-1.5-0.9-2.4-2.4-2.4h-2.3v4.8H699.4z"/><path d="M200.5 27.3h18.1c9 0 15.5 6.1 15.5 15.5s-6.5 15.7-15.5 15.7h-11.1v18.3h-6.9V27.3zM217.4 52.4c6 0 9.6-3.7 9.6-9.7s-3.6-9.5-9.5-9.5h-10.1v19.1H217.4zM258.1 40.5c10.6 0 19.1 7.8 19.1 18.5 0 10.8-8.5 18.6-19.1 18.6 -10.6 0-19.1-7.8-19.1-18.6C239 48.2 247.5 40.5 258.1 40.5zM258.1 71.7c6.7 0 12.2-5.3 12.2-12.7 0-7.4-5.5-12.6-12.2-12.6 -6.7 0-12.2 5.3-12.2 12.6C245.9 66.4 251.4 71.7 258.1 71.7zM281.1 41.3h7.2l7.4 24.9c0.6 1.8 0.8 3.8 0.9 3.8h0.1c0 0 0.4-2 0.9-3.8l7.7-24.8h6.2l7.6 24.8c0.6 1.8 1 3.8 1 3.8h0.1c0 0 0.3-2 0.8-3.8l7.4-24.9h7.1l-11.4 35.4h-7.5L309.5 54c-0.6-1.8-1-3.9-1-3.9h-0.1c0 0-0.4 2-1 3.9l-7.3 22.8h-7.6L281.1 41.3zM357.5 40.5c10 0 15.3 7.4 15.3 16.6 0 0.9-0.2 2.9-0.2 2.9h-25.8c0.3 7.8 5.9 11.7 12.2 11.7 6.1 0 10.5-4.1 10.5-4.1l2.8 5c0 0-5.3 5-13.7 5 -11.1 0-18.8-8.1-18.8-18.6C339.8 47.8 347.4 40.5 357.5 40.5zM365.9 54.9c-0.2-6.1-4-9-8.5-9 -5.2 0-9.4 3.2-10.4 9H365.9zM381.1 41.3h6.6v6.2c0 1.5-0.1 2.7-0.1 2.7h0.1c1.6-5.2 5.7-9.2 11.2-9.2 0.9 0 1.8 0.1 1.8 0.1v6.7c0 0-0.9-0.2-2-0.2 -4.3 0-8.3 3.1-9.9 8.3 -0.6 2-0.8 4.2-0.8 6.4v14.5h-6.8V41.3zM422.4 40.5c10 0 15.3 7.4 15.3 16.6 0 0.9-0.2 2.9-0.2 2.9h-25.8c0.4 7.8 5.9 11.7 12.2 11.7 6.1 0 10.5-4.1 10.5-4.1l2.8 5c0 0-5.2 5-13.7 5 -11.1 0-18.8-8.1-18.8-18.6C404.7 47.8 412.3 40.5 422.4 40.5zM430.8 54.9c-0.2-6.1-4-9-8.5-9 -5.2 0-9.4 3.2-10.4 9H430.8zM459.7 40.5c8.2 0 10.9 5.6 10.9 5.6h0.1c0 0-0.1-1.1-0.1-2.4V27.3h6.8v49.4h-6.4v-3.4c0-1.4 0.1-2.4 0.1-2.4h-0.1c0 0-2.9 6.6-11.6 6.6 -9.6 0-15.6-7.6-15.6-18.6C443.6 47.8 450.3 40.5 459.7 40.5zM460.6 71.7c5.3 0 10.2-3.7 10.2-12.7 0-6.3-3.3-12.6-10-12.6 -5.6 0-10.2 4.6-10.2 12.7C450.6 66.7 454.7 71.7 460.6 71.7zM506 27.3h6.8v16.2c0 1.8-0.1 3-0.1 3h0.1c0 0 3-6 11.3-6 9.5 0 15.5 7.6 15.5 18.6 0 11.3-6.8 18.6-16.1 18.6 -7.9 0-11.1-6.1-11.1-6.1h-0.1c0 0 0.1 1.1 0.1 2.7v2.6H506V27.3zM522.6 71.8c5.6 0 10.2-4.6 10.2-12.7 0-7.7-4.1-12.7-10-12.7 -5.3 0-10.2 3.7-10.2 12.7C512.6 65.5 515.9 71.8 522.6 71.8zM545.4 84.1c0 0 2 1.5 4.1 1.5 2.7 0 5-2 6.4-5.2l1.8-4.1 -14.8-35h7.6l8.9 23.2c0.7 1.8 1.3 4.3 1.3 4.3h0.1c0 0 0.6-2.4 1.2-4.2l8.6-23.2h7.4l-16.6 41.8c-2.2 5.5-6.5 8.3-11.5 8.3 -4 0-6.9-2.2-6.9-2.2L545.4 84.1z"/></svg>