<svg xmlns="http://www.w3.org/2000/svg" version="1.1" x="0" y="0" viewBox="0 0 475.7 366.6" enable-background="new 0 0 475.7 366.6" xml:space="preserve"><path d="M475.7 366.6h-85.1c0-23.3-8.3-43.4-25-60.1 -16.7-17.1-36.8-25.3-60.1-25.3s-43.4 8.3-60.1 25.3c-16.3 16.7-24.7 36.8-24.7 60.1h-83v-27.5 -61.4 -1.8c25.4-4.5 47.8-16.5 66.8-35.7 7.1-7.1 13.3-14.7 18.3-22.7v0.1c25.3-14.1 53-21.4 82.7-21.4 46.9 0 87.2 16.7 120.3 50C459 279.4 475.7 319.7 475.7 366.6M228 157.4c-0.2 7.7-1.3 15.2-3 22.5 -0.2 0.9-0.4 1.8-0.7 2.6 -0.2 0.9-0.4 1.8-0.7 2.6 -0.2 0.7-0.4 1.4-0.7 2.1 -0.3 1-0.7 2.1-1 3s-0.7 2-1 2.9c-0.7 2.1-1.6 4.1-2.5 6.2 -0.1 0.1-0.1 0.2-0.1 0.3 0 0 0 0.1-0.1 0.1 -0.2 0.4-0.4 0.9-0.6 1.2 -1.4 3.1-2.9 6.1-4.7 9 -4.8 8.3-10.5 15.9-17.4 22.9 -0.3 0.4-0.7 0.7-1 1 -0.2 0.2-0.5 0.4-0.7 0.7 -0.3 0.3-0.6 0.6-0.9 0.8 -11.1 10.6-23.4 18.5-36.6 23.8 -1 0.4-2.1 0.8-3.1 1.2 -0.8 0.3-1.6 0.7-2.4 0.9 -11.4 3.9-23.4 5.8-36 5.8 -0.3 0-0.5 0-0.8 0 -0.4 0-0.7 0-1.1 0s-0.7 0-1 0c-1 0-2.1 0-3.1-0.1 -1.7-0.1-3.3-0.1-4.9-0.3 -0.6-0.1-1.2-0.1-1.8-0.1 -1.4-0.1-2.8-0.3-4.2-0.5 -0.9-0.1-1.8-0.2-2.6-0.4 -1-0.1-2.1-0.3-3.1-0.5 -4.4-0.8-8.6-1.9-12.8-3.2 -0.3-0.1-0.6-0.1-0.8-0.2 -1.4-0.4-2.8-0.9-4.2-1.4 -2.1-0.7-4-1.5-6-2.3 -15-6.4-28.3-16.3-40.1-29.4 -2.9-3.2-5.4-6.6-7.8-10 -0.3-0.4-0.5-0.7-0.8-1.2 -1.5-2.3-3-4.5-4.4-6.8 -0.4-0.7-0.7-1.3-1.1-2 -1.2-2.2-2.3-4.3-3.4-6.6 -0.2-0.4-0.4-1-0.7-1.4 -1.3-2.8-2.4-5.6-3.4-8.5 0-0.1-0.1-0.2-0.1-0.4C2.1 180 0 167.4 0 154.1c0-0.3 0-0.5 0-0.7 0-0.3 0-0.7 0-1 0-0.4 0-0.9 0-1.4 0-0.8 0-1.5 0.1-2.3 0.1-2.3 0.2-4.6 0.4-6.9l6.1-94.2c10 6.7 19 14.9 26.9 24.9 6.9-6.9 14.3-12.8 22.3-17.6l73.1-51.6c1 11.1 0.4 22.5-2 34.1l73.1-7.7c-4.9 10.9-11.4 21.1-19.9 30.6 7 5 13.4 10.9 19.3 17.6 8.6-9.4 18-17 28.3-23v90.5C228.1 149.4 228.2 153.4 228 157.4M170.9 152.8c0-1.8-0.1-3.6-0.2-5.3 0 0 0 0 0-0.1 -0.1-1.8-0.4-3.6-0.7-5.3 0-0.1 0-0.1-0.1-0.3 -0.3-1.5-0.7-3-1.1-4.4 -0.1-0.4-0.2-0.9-0.4-1.3 -0.3-1-0.7-2-1-2.9 -0.4-1-0.7-1.8-1.1-2.8 -0.2-0.4-0.4-0.9-0.7-1.3 -2.3-4.7-5.2-9.2-8.9-13.4 -2.6-2.9-5.3-5.5-8.2-7.8 -0.1-0.1-0.3-0.2-0.4-0.3 -1.3-1-2.6-1.9-4-2.8 -0.3-0.1-0.6-0.4-0.9-0.5 -1.2-0.8-2.6-1.5-3.9-2.2 -0.3-0.1-0.7-0.3-1-0.4 -1.3-0.7-2.7-1.2-4-1.8 -0.3-0.1-0.7-0.2-1-0.4 -1.4-0.5-2.8-1-4.2-1.3 -0.4-0.1-0.8-0.2-1.2-0.3 -1.3-0.3-2.6-0.6-4-0.8 -0.7-0.1-1.4-0.2-2.1-0.3 -1-0.1-2.1-0.3-3.1-0.4 -1.4-0.1-2.8-0.1-4.2-0.1 -0.3 0-0.7 0-1 0 -3.6 0-7 0.4-10.4 1 -0.5 0.1-1.1 0.2-1.6 0.4 -0.9 0.1-1.7 0.4-2.6 0.7 -1.2 0.4-2.5 0.7-3.7 1.2 -0.7 0.2-1.4 0.4-2.1 0.7 -0.9 0.4-1.8 0.7-2.7 1.2 -0.1 0-0.1 0.1-0.1 0.1 -1.8 0.9-3.7 1.8-5.5 2.9 -0.3 0.2-0.7 0.4-1 0.6 -0.7 0.4-1.5 1-2.2 1.5 -2.8 2-5.5 4.2-8 6.7 -2.6 2.5-4.8 5.2-6.7 8 -0.3 0.4-0.6 0.8-0.9 1.2 -0.4 0.7-0.8 1.4-1.2 2.1 -0.6 1-1.2 1.9-1.6 2.9 -0.1 0.1-0.1 0.2-0.1 0.4 -2.3 4.8-4 9.9-5.1 15.4 -0.1 0.7-0.2 1.5-0.3 2.3 -0.1 1-0.2 2-0.4 2.9 -0.3 3.6-0.2 7.3 0.2 11 0.3 2.9 0.9 5.6 1.5 8.3 1.8 6.4 4.6 12.5 8.7 18.4 9 12.7 21.3 20.5 36.7 23.4 0.8 0.1 1.5 0.2 2.3 0.3 1 0.1 2.1 0.3 3.1 0.4 0.4 0 0.7 0.1 1.1 0.1 1.4 0.1 2.7 0.1 4.1 0.1 0.9 0 1.8-0.1 2.6-0.1 0.9-0.1 1.7-0.1 2.6-0.2 1.1-0.1 2.1-0.2 3.1-0.4 0.7-0.1 1.5-0.2 2.3-0.4 1-0.1 1.8-0.4 2.7-0.7 1-0.2 2-0.5 2.9-0.8 0.6-0.1 1.1-0.4 1.7-0.5 6.6-2.3 12.8-5.9 18.5-10.8 1.2-1.1 2.3-2.2 3.5-3.4 1.1-1.2 2.2-2.3 3.2-3.7 4.4-5.4 7.5-11.2 9.7-17.2 0.4-1 0.7-2 1-3 0.1-0.6 0.3-1.2 0.4-1.8 0.3-1.2 0.5-2.3 0.7-3.5 0.1-0.7 0.2-1.5 0.3-2.3 0.1-1 0.3-2 0.4-3 0.1-1.2 0.1-2.6 0.1-3.8C170.9 153.7 170.9 153.2 170.9 152.8"/></svg>