<svg xmlns="http://www.w3.org/2000/svg" version="1.2" baseProfile="tiny" x="0" y="0" viewBox="0 0 53.2 53.6" xml:space="preserve"><path d="M34.2 0H20.1c-1.9 0-3.9 0.2-6 0.7C12 1.2 9.9 2.2 7.9 3.9 5 6.7 3.5 9.8 3.5 13.3c0 2.9 1 5.4 3.1 7.5 2 2.3 4.8 3.5 8.6 3.5 0.7 0 1.5 0 2.3-0.1 -0.1 0.4-0.3 0.8-0.4 1.2 -0.2 0.4-0.3 0.9-0.3 1.6 0 1 0.2 1.9 0.7 2.7 0.4 0.8 0.8 1.5 1.4 2.1 -1.6 0-3.7 0.3-6.2 0.6 -2.5 0.4-4.9 1.3-7.2 2.6 -2 1.2-3.4 2.6-4.2 4.2C0.4 40.8 0 42.2 0 43.5c0 2.7 1.2 5 3.7 6.9 2.4 2.1 6.1 3.1 11 3.1 5.9-0.1 10.4-1.5 13.5-4.2 3-2.6 4.5-5.7 4.5-9.1 0-2.4-0.6-4.3-1.6-5.8 -1.1-1.5-2.4-2.8-3.9-4l-2.4-2c-0.3-0.3-0.7-0.7-1.1-1.2 -0.4-0.5-0.6-1.1-0.6-1.8 0-0.8 0.2-1.4 0.6-2 0.4-0.6 0.7-1 1.2-1.5 0.7-0.6 1.4-1.3 2.1-1.9 0.6-0.6 1.1-1.3 1.7-2 1.1-1.5 1.6-3.5 1.7-6 0-1.4-0.2-2.6-0.5-3.6 -0.4-1-0.8-1.9-1.3-2.7 -0.5-0.8-1-1.5-1.6-2 -0.6-0.5-1-0.9-1.5-1.2h4.3L34.2 0zM26.5 38.4c1.2 1.3 1.7 2.9 1.7 4.7 0 2.2-0.9 4-2.6 5.4 -1.7 1.4-4.3 2.1-7.6 2.2 -3.7 0-6.6-0.9-8.7-2.5C7.1 46.6 6 44.5 6 42c0-1.3 0.3-2.3 0.8-3.2 0.4-0.8 1-1.6 1.6-2.1 0.7-0.5 1.3-1 2-1.3 0.7-0.3 1.2-0.5 1.5-0.6 1.5-0.5 3-0.8 4.5-1 1.5-0.1 2.4-0.2 2.8-0.1 0.6 0 1.1 0 1.6 0.1C23.3 35.6 25.2 37.1 26.5 38.4zM24.2 17.7c-0.2 0.9-0.6 1.9-1.1 2.8 -1.2 1.3-2.8 1.9-4.6 2 -1.5 0-2.8-0.4-3.9-1.3 -1.1-0.9-2.1-2-2.8-3.3 -1.5-2.8-2.2-5.4-2.2-7.9 0-1.9 0.5-3.7 1.5-5.2 1.3-1.5 2.8-2.3 4.8-2.3 1.4 0 2.7 0.5 3.8 1.3 1.1 0.8 2 2 2.6 3.3 1.4 2.8 2.1 5.6 2.1 8.4C24.3 15.9 24.3 16.7 24.2 17.7z"/><polygon points="45.9 7.7 45.9 0.3 42.3 0.3 42.3 7.7 34.9 7.7 34.9 11.3 42.3 11.3 42.3 18.6 45.9 18.6 45.9 11.3 53.2 11.3 53.2 7.7 "/></svg>