<svg xmlns="http://www.w3.org/2000/svg" version="1.1" x="0" y="0" viewBox="0 0 50.4 52.1" enable-background="new 0 0 50.4 52.1" xml:space="preserve"><path d="M46.9 32.1h-9.4c-0.8 0-0.8 1.3 0 1.3h9.4C47.7 33.3 47.7 32.1 46.9 32.1zM46.9 35.6H38c-0.8 0-0.8 1.3 0 1.3h8.9C47.7 36.9 47.7 35.6 46.9 35.6zM49.2 38.3H37.4c-0.3 0-0.7-0.5-1.1-1.3 -2.1-4.5 0-10 1.1-10 3.9 0 7.8 0 11.8 0 1.7 0 1.7-2.5 0-2.5H23.1c0.7-0.4 1.4-0.9 2-1.5 5.1-5.2 4.6-14.5-1-16.1v0c0 0-0.1 0-0.3-0.1l0 0c-2.2-0.5-3.1-0.1-4.4 0.4 -0.4 0.2-0.8 0.3-1.2 0.4 0.6-2.6 1.7-4.6 3.5-6 0.7-0.4 0-1.5-0.7-1 -1.5 1-2.5 2.4-3.1 4 -0.6-3-2.7-4.1-6.3-4.7 0.2 4.4 2.2 5.7 5.4 7.7 -1.9-0.3-3-2-6.7 0.2C9.9 8.1 9.7 8.3 9.4 8.6c-3 2.7-2.8 8.2-0.7 11.9 0.8 1.3 2.3 3.1 4 4.1H4.4c-1.4 0-2.5 1.1-3.3 2.7 -2.4 5.3-0.6 13.5 3.3 13.5h17.4c0.2 0 0.5 0.4 0.7 0.9 1.6 3.1 0.2 7.9-0.9 7.9H3.8c-1.7 0-1.7 2.5 0 2.5v0h41.7c3.9 0 5-7.3 3.2-11.3h0.4C50.9 40.8 50.9 38.3 49.2 38.3zM10 13.7C8.9 13 11.5 8.4 13.1 10 14.2 10.9 11.5 14.7 10 13.7zM3.3 28.3C4.1 26.7 4.2 27 6.6 27c-1.6 3.3-1.6 11.3 0 11.3H4.4C3.3 38.3 1.3 32.8 3.3 28.3zM10.1 38.4c-0.6 0-0.8 0-1.4-1.3 -2.1-4.5 0-10 1.1-10v0h0.4C8.4 30.2 8.4 35.1 10.1 38.4zM13.2 38.3c-0.3 0-0.7-0.5-1.1-1.3 -2.1-4.5 0-10 1.1-10v0h21c-1.6 3.1-1.6 7.9 0 11.3H13.2zM40.5 49.6H24.7c1.2-2.5 1.2-8.8 0-8.8h15.9c0.2 0 0.5 0.4 0.7 0.9C43 44.9 41.6 49.6 40.5 49.6zM46.4 48.7c-0.6 1.3-0.8 1-2.8 1 1.2-2.6 1.2-8.8 0-8.8h2.1C46.8 41.3 47.9 45.8 46.4 48.7zM46.9 28.3H38c-0.8 0-0.8 1.3 0 1.3h8.9C47.7 29.6 47.7 28.3 46.9 28.3zM19.4 30.8h-3.7c-0.8 0-0.8 1.3 0 1.3h3.7C20.3 32.1 20.3 30.8 19.4 30.8zM19.4 33.1h-3.7c-0.8 0-0.8 1.3 0 1.3h3.7C20.3 34.4 20.3 33.1 19.4 33.1zM39.3 44h-7.2c-0.7 0-1.2 0.6-1.2 1.3 0 0.7 0.6 1.3 1.2 1.3h7.2c0.7 0 1.2-0.6 1.2-1.3C40.5 44.5 40 44 39.3 44zM21.3 41.9H4.5c-0.8 0-0.8 1.3 0 1.3h16.9C22.1 43.1 22.1 41.9 21.3 41.9zM21.3 44.6H5.1c-0.6 0-0.6 1.3 0 1.3h16.2C22.1 45.8 22.1 44.6 21.3 44.6zM4.5 48.4h16.9c0.8 0 0.8-1.3 0-1.3H4.5C3.6 47.1 3.6 48.4 4.5 48.4z"/></svg>