<svg xmlns="http://www.w3.org/2000/svg" version="1.1" x="0" y="0" viewBox="0 0 60 60.3" enable-background="new 0 0 60 60.3" xml:space="preserve"><path d="M48.4 0H11.6C5.2 0 0 5.2 0 11.6v12.2 24.6C0 54.8 5.2 60 11.6 60h36.8C54.8 60 60 54.8 60 48.4V23.8 11.6C60 5.2 54.8 0 48.4 0zM51.7 6.9l1.3 0v1.3 8.8l-10.1 0 0-10.2L51.7 6.9zM21.4 23.8c1.9-2.7 5-4.4 8.6-4.4 3.5 0 6.6 1.7 8.6 4.4 1.3 1.7 2 3.9 2 6.2 0 5.8-4.7 10.6-10.6 10.6 -5.8 0-10.6-4.7-10.6-10.6C19.4 27.7 20.2 25.6 21.4 23.8zM54.2 48.4c0 3.2-2.6 5.7-5.7 5.7H11.6c-3.2 0-5.8-2.6-5.8-5.7V23.8h9c-0.8 1.9-1.2 4-1.2 6.2 0 9 7.4 16.4 16.4 16.4 9 0 16.4-7.4 16.4-16.4 0-2.2-0.4-4.3-1.2-6.2h9V48.4z"/></svg>