<svg xmlns="http://www.w3.org/2000/svg" version="1.1" x="0" y="0" viewBox="-49 253 512 400" xml:space="preserve"><path d="M78.8 502C18.9 502-17 476.4-17 476.4 50.2 433-28 253 117.1 253c27.2 0 35.4 15.9 35.4 15.9 12.3 0 22.1 2.4 30.1 6.6 -12.4 17.2-18 40.4-17.1 71.7 -2.5 1.8-4.9 4-7.2 6.7 -12.5 15.4-8.9 36.4-7.7 43.3 2 11.4 7.2 41.8 31.5 53.1 5.6 17.3 15.5 32.5 27.5 45.1 -14.1 3.7-30.9 6.6-50.6 6.6v22.6l-1.3 4.2c0 0-0.1 0-0.2 0.1 -1.5 0.6-3.2 1.2-5.1 1.9 -14.5 5.3-42.9 15.9-57.7 44.2L79 524.8V502h-0.1H78.8zM85.4 629.7v-12.8L58.5 589H14.2L63 525c-21.7 4-53 13.7-58.6 16 -16.5 6.9-53.4 27.4-53.4 75.1v13.6c0 12.9 9.4 23.3 21 23.3H91.4C87.7 646 85.4 638.2 85.4 629.7zM407 552.6c-7.7-3-29.5-10.1-47.3-16.8l-32 89.6 -29.4-49.5c4.7-3.3 19.2-15.3 19.2-28.8 0-13.5-15.4-22.1-29.8-22.1s-31.1 8.6-31.1 22.1c0 13.5 14.5 25.5 19.2 28.8l-29.4 49.5 -31.7-89.6c-17.9 6.9-39.6 13.6-47.6 16.8 -17.3 6.9-56 15.9-56 63.6v13.6c0 12.9 9.9 23.3 22 23.3h308c12.2 0 22-10.4 22-23.3v-13.6C463 568.4 424.2 559.5 407 552.6zM397.9 392.9c-4.9 28.7-10.4 36.1-23.9 36.1 -1 0-2.5-0.1-3.8-0.3 -6.4 48.5-57.2 80.3-83.4 80.3 -26.2 0-76.7-31.6-83.3-80 -0.3 0-0.5 0-0.8 0 -13.3-0.1-21.9-7.6-26.8-36.1 -4.2-24.5 5.2-27.4 16.5-27.8 -8-77.5 20.2-96.1 66.5-96.1 0 0-3.1-16 21.2-16 38.6 0 119.9 28.8 99.4 112C391.6 365.2 402.3 367.1 397.9 392.9z"/></svg>