<svg xmlns="http://www.w3.org/2000/svg" version="1" x="0" y="0" viewBox="0 0 105.4 105.8" xml:space="preserve"><path d="M105.4 83.2c0 1.3-0.2 3.1-0.7 5.3 -0.5 2.2-1 3.9-1.6 5.1 -1 2.5-4.1 5.1-9.1 7.9 -4.7 2.5-9.3 3.8-13.9 3.8 -1.3 0-2.7-0.1-3.9-0.3 -1.3-0.2-2.7-0.5-4.3-0.9 -1.6-0.4-2.8-0.8-3.6-1.1s-2.2-0.8-4.2-1.5c-2-0.7-3.2-1.2-3.7-1.3 -4.9-1.7-9.3-3.8-13.1-6.2 -6.4-3.9-13-9.3-19.8-16.1S15.3 64.5 11.4 58.1C9 54.2 6.9 49.9 5.2 45c-0.1-0.4-0.6-1.7-1.3-3.7 -0.7-2-1.3-3.4-1.5-4.2 -0.3-0.8-0.6-2-1.1-3.6 -0.4-1.6-0.8-3-0.9-4.3C0.1 28 0 26.7 0 25.4c0-4.6 1.3-9.2 3.8-13.9 2.8-5 5.4-8.1 7.9-9.1 1.2-0.5 3-1.1 5.1-1.6S20.8 0 22.2 0c0.7 0 1.2 0.1 1.6 0.2 0.9 0.3 2.2 2.2 4 5.7 0.5 0.9 1.3 2.3 2.2 4s1.8 3.3 2.6 4.8c0.8 1.4 1.6 2.8 2.3 4 0.1 0.2 0.6 0.8 1.3 1.9s1.3 1.9 1.6 2.7c0.3 0.7 0.5 1.4 0.5 2.1 0 1-0.7 2.2-2.1 3.7 -1.4 1.5-3 2.9-4.6 4.1 -1.7 1.2-3.2 2.6-4.6 4 -1.4 1.4-2.1 2.5-2.1 3.4 0 0.4 0.1 1 0.4 1.7s0.5 1.2 0.6 1.5c0.2 0.3 0.5 0.9 1 1.8s0.8 1.3 0.9 1.4c3.8 6.8 8.1 12.7 13 17.6s10.8 9.2 17.6 13c0.1 0 0.6 0.3 1.4 0.9 0.8 0.5 1.4 0.9 1.8 1 0.3 0.2 0.9 0.4 1.5 0.6 0.7 0.2 1.2 0.4 1.7 0.4 0.9 0 2-0.7 3.4-2.1 1.4-1.4 2.7-3 4-4.6s2.6-3.2 4.1-4.6c1.5-1.4 2.7-2.1 3.7-2.1 0.7 0 1.4 0.2 2.1 0.5s1.6 0.9 2.7 1.6c1 0.7 1.7 1.2 1.9 1.3 1.2 0.7 2.6 1.5 4 2.3 1.4 0.8 3 1.7 4.8 2.6s3.1 1.7 4 2.2c3.5 1.7 5.4 3.1 5.7 4C105.3 82 105.4 82.5 105.4 83.2z"/></svg>