<svg xmlns="http://www.w3.org/2000/svg" version="1.1" x="0" y="0" viewBox="0 0 512 353.1" enable-background="new 0 0 512 353.1" xml:space="preserve"><path d="M238.1 136.8c-1.8 0-3.2-1.4-3.2-3.2l0 0c0-1.8 1.4-3.2 3.2-3.2l0 0h17.5v-15.7c0-1.8 1.4-3.2 3.2-3.2l0 0c1.8 0 3.2 1.4 3.2 3.2l0 0v22.1H238.1L238.1 136.8z"/><path d="M324.8 333.9v-10.1h169.6v-19.2H472V138.2H324.8v-14.4l-69.2-49.6 -68.4 49.6v14.4H40v166.4H17.6v19.2h169.6v10.1H0v19.2h512v-19.2H324.8zM416.4 175.2h23.9V215h-23.9V175.2zM416.4 230.9h23.9v39.8h-23.9V230.9zM380.4 175.2h24V215h-24V175.2zM380.4 230.9h24v39.8h-24V230.9zM344.3 175.2h23.9V215h-23.9V175.2zM344.3 230.9h23.9v39.8h-23.9V230.9zM94.7 270.7H70.7v-39.8h23.9C94.7 230.9 94.7 270.7 94.7 270.7zM94.7 215H70.7v-39.8h23.9C94.7 175.2 94.7 215 94.7 215zM130.7 270.7h-23.9v-39.8h23.9V270.7zM130.7 215h-23.9v-39.8h23.9V215zM166.7 270.7h-23.9v-39.8h23.9V270.7zM166.7 215h-23.9v-39.8h23.9V215zM278.7 309.3h-46.4v-72c0-12.8 10.4-23.2 23.2-23.2 12.8 0 23.2 10.4 23.2 23.2V309.3zM256 157.4c-14.6 0-26.4-11.8-26.4-26.4 0-14.6 11.8-26.4 26.4-26.4 14.6 0 26.4 11.8 26.4 26.4C282.4 145.6 270.6 157.4 256 157.4zM346.2 107.5l-7.7-5.8 -79.4-59.5V29.6h44.6V0.8h-45.6v0.1C257.6 0.3 256.8 0 256 0c-1.8 0-3.2 1.4-3.2 3.2v39l-87 65.3 -0.6 25.1L256 63.8l90.7 67.2L346.2 107.5z"/></svg>