<svg xmlns="http://www.w3.org/2000/svg" version="1.1" x="0" y="0" viewBox="0 0 19 15.4" xml:space="preserve"><path d="M19 1.8c-0.7 0.3-1.4 0.5-2.2 0.6 0.8-0.5 1.4-1.2 1.7-2.1C17.8 0.7 16.9 1 16 1.2 15.3 0.5 14.3 0 13.2 0c-2.1 0-3.9 1.7-3.9 3.9 0 0.3 0 0.6 0.1 0.9 -3.2-0.2-6.1-1.7-8-4C1.1 1.3 0.9 1.9 0.9 2.7c0 1.3 0.7 2.5 1.7 3.2C2 5.9 1.4 5.7 0.9 5.4c0 0 0 0 0 0 0 1.9 1.3 3.4 3.1 3.8C3.7 9.3 3.3 9.4 3 9.4c-0.3 0-0.5 0-0.7-0.1C2.7 10.9 4.2 12 5.9 12c-1.3 1-3 1.7-4.8 1.7 -0.3 0-0.6 0-0.9-0.1 1.7 1.1 3.8 1.7 5.9 1.7 7.1 0 11-5.9 11-11 0-0.2 0-0.3 0-0.5C17.8 3.3 18.5 2.6 19 1.8z"/></svg>