<svg xmlns="http://www.w3.org/2000/svg" version="1.1" x="0" y="0" viewBox="0 0 49 48" enable-background="new 0 0 49 48" xml:space="preserve"><path d="M40.1 22.8H9c-4.9 0-9 4-9 9V39c0 4.9 4 9 9 9h31.1c4.9 0 9-4 9-9v-7.2C49 26.9 45 22.8 40.1 22.8zM15.5 28.5h-2.9v14.4H9.8V28.5H6.9V26h8.6C15.5 26 15.5 28.5 15.5 28.5zM23.7 42.8h-2.5v-1.4c-0.5 0.5-0.9 0.9-1.4 1.1 -0.5 0.3-1 0.4-1.4 0.4 -0.6 0-1-0.2-1.3-0.6 -0.3-0.4-0.4-0.9-0.4-1.7V30.4h2.5v9.5c0 0.3 0.1 0.5 0.2 0.6 0.1 0.1 0.3 0.2 0.5 0.2 0.2 0 0.4-0.1 0.7-0.3 0.3-0.2 0.5-0.4 0.8-0.7v-9.4h2.5V42.8zM32.7 40.3c0 0.9-0.2 1.6-0.6 2 -0.4 0.5-1 0.7-1.7 0.7 -0.5 0-0.9-0.1-1.3-0.3 -0.4-0.2-0.7-0.5-1.1-0.8v1h-2.5V26H28v5.4c0.3-0.4 0.7-0.7 1.1-0.9 0.4-0.2 0.8-0.3 1.1-0.3 0.8 0 1.4 0.3 1.8 0.8 0.4 0.5 0.6 1.3 0.6 2.3L32.7 40.3 32.7 40.3zM41.3 36.9h-4.7v2.3c0 0.7 0.1 1.1 0.2 1.4 0.2 0.3 0.4 0.4 0.8 0.4 0.4 0 0.7-0.1 0.9-0.3 0.2-0.2 0.2-0.7 0.2-1.4v-0.6h2.6v0.6c0 1.3-0.3 2.2-0.9 2.9 -0.6 0.6-1.5 1-2.8 1 -1.1 0-2-0.3-2.6-1 -0.6-0.7-1-1.6-1-2.8v-5.6c0-1.1 0.4-2 1.1-2.6 0.7-0.7 1.6-1 2.7-1 1.1 0 2 0.3 2.6 0.9 0.6 0.6 0.9 1.5 0.9 2.7V36.9zM37.6 32.3c-0.4 0-0.7 0.1-0.8 0.3 -0.2 0.2-0.3 0.6-0.3 1.1V35h2.2v-1.3c0-0.5-0.1-0.9-0.3-1.1C38.3 32.4 38 32.3 37.6 32.3zM29.1 32.2c-0.2 0-0.4 0-0.5 0.1 -0.2 0.1-0.3 0.2-0.5 0.4v7.7c0.2 0.2 0.4 0.4 0.6 0.4 0.2 0.1 0.4 0.1 0.6 0.1 0.3 0 0.5-0.1 0.7-0.3 0.1-0.2 0.2-0.5 0.2-0.9v-6.4c0-0.4-0.1-0.7-0.3-1C29.7 32.4 29.4 32.2 29.1 32.2z"/><polygon points="13 18.5 16.2 18.5 16.2 10.8 19.8 0 16.6 0 14.7 7.4 14.5 7.4 12.5 0 9.3 0 13 11.2 "/><path d="M24.1 18.9c1.3 0 2.3-0.3 3-1 0.7-0.7 1.1-1.6 1.1-2.8V8.1c0-1-0.4-1.9-1.1-2.6 -0.7-0.7-1.7-1-2.8-1 -1.3 0-2.3 0.3-3 0.9 -0.8 0.6-1.1 1.5-1.1 2.5v7.1c0 1.2 0.4 2.1 1.1 2.8C21.9 18.5 22.9 18.9 24.1 18.9zM22.9 7.9c0-0.3 0.1-0.5 0.3-0.7 0.2-0.2 0.5-0.3 0.8-0.3 0.4 0 0.7 0.1 0.9 0.3 0.2 0.2 0.3 0.4 0.3 0.7v7.5c0 0.4-0.1 0.7-0.3 0.9 -0.2 0.2-0.5 0.3-0.9 0.3 -0.4 0-0.7-0.1-0.9-0.3 -0.2-0.2-0.3-0.5-0.3-0.9L22.9 7.9 22.9 7.9zM32.4 18.7c0.5 0 1.1-0.1 1.6-0.4 0.6-0.3 1.1-0.7 1.6-1.3v1.5h2.8V4.9h-2.8v10.4c-0.3 0.3-0.5 0.5-0.9 0.7 -0.3 0.2-0.6 0.3-0.8 0.3 -0.3 0-0.5-0.1-0.6-0.2 -0.1-0.1-0.2-0.4-0.2-0.7V4.9h-2.8v11.4c0 0.8 0.2 1.4 0.5 1.8C31.3 18.5 31.7 18.7 32.4 18.7z"/></svg>